<?xml version="1.0" encoding="UTF-8" standalone="no"?>
<!-- Created with Inkscape (http://www.inkscape.org/) -->

<svg
   width="87mm"
   height="72mm"
   viewBox="0 0 87 72"
   version="1.1"
   id="svg5"
   sodipodi:docname="logoSloganVV.svg"
   inkscape:version="1.2.2 (732a01da63, 2022-12-09)"
   xmlns:inkscape="http://www.inkscape.org/namespaces/inkscape"
   xmlns:sodipodi="http://sodipodi.sourceforge.net/DTD/sodipodi-0.dtd"
   xmlns="http://www.w3.org/2000/svg"
   xmlns:svg="http://www.w3.org/2000/svg">
  <sodipodi:namedview
     id="namedview7"
     pagecolor="#ffffff"
     bordercolor="#666666"
     borderopacity="1.0"
     inkscape:pageshadow="2"
     inkscape:pageopacity="0.0"
     inkscape:pagecheckerboard="0"
     inkscape:document-units="mm"
     showgrid="false"
     inkscape:zoom="0.94430417"
     inkscape:cx="85.777446"
     inkscape:cy="73.069676"
     inkscape:window-width="1366"
     inkscape:window-height="715"
     inkscape:window-x="-8"
     inkscape:window-y="-8"
     inkscape:window-maximized="1"
     inkscape:current-layer="svg5"
     width="209mm"
     inkscape:showpageshadow="0"
     inkscape:deskcolor="#d1d1d1" />
  <defs
     id="defs2" />
  <g
     inkscape:groupmode="layer"
     id="layer2"
     inkscape:label="Dibujar">
    <path
       style="fill:#ff0000;fill-opacity:1;stroke:#ff0000;stroke-width:0.264583px;stroke-linecap:butt;stroke-linejoin:miter;stroke-opacity:1"
       d="m 62.240259,23.528189 -0.92811,0.19263 c 1.15254,-1.85625 3.21904,-4.46508 -0.22766,-5.48119 -5.64603,-1.27857 -11.11452,0.38076 -16.671228,3.46734 -0.358528,-5.2201 -1.80004,-3.22728 -3.257193,-0.66545 C 35.955922,14.997479 31.209608,7.75369 25.710667,9.7288993 23.729052,11.145949 25.208229,20.023929 31.069276,22.337389 c -4.883561,18.74594 1.032455,12.493627 10.597374,5.192574 5.267694,15.525251 6.302591,14.723163 10.346729,0.411196 3.00913,1.19195 9.79705,-0.72432 6.68951,-6.33926 l -0.66546,0.98066 -0.10506,-2.3816 2.66179,0.94563 -1.1908,0.24517 c 2.13644,2.41662 0.92826,8.60868 -6.65448,7.35495 C 47.772655,43.262563 48.000945,45.38198 41.338724,29.218063 32.561361,34.864203 24.89496,44.076137 30.158663,22.792699 24.016863,19.335969 22.720629,11.429349 24.940148,9.1334996 28.413699,7.29232 32.973925,8.4938299 41.08602,19.640579 c 1.594556,-2.04317 3.158083,-3.71399 4.202829,0.84056 5.64689,-3.34576 10.83529,-4.06687 16.21592,-3.15212 4.82062,1.62724 1.46549,6.36806 0.73549,7.1273 z"
       id="path870"
       sodipodi:nodetypes="ccccccccccccccccccccccc" />
    <path
       id="path629"
       style="font-size:20.4611px;line-height:1.25;stroke-width:0.264583;font-family:'Tw Cen MT';-inkscape-font-specification:'Tw Cen MT';fill:#ff0000"
       d="M 26.533264 42.902808 L 26.533264 55.871008 L 28.271659 55.871008 L 28.271659 42.902808 L 26.533264 42.902808 z M 4.0338623 43.16274 L 9.8386759 56.300439 L 15.733407 43.16274 L 13.875122 43.16274 L 9.8588298 52.164258 L 5.8725098 43.16274 L 4.0338623 43.16274 z M 29.880347 43.16274 L 35.684644 56.300439 L 41.579374 43.16274 L 39.72109 43.16274 L 35.704797 52.164258 L 31.718477 43.16274 L 29.880347 43.16274 z M 69.733211 45.230831 L 69.733211 47.608464 L 68.364819 47.608464 L 68.364819 49.217151 L 69.733211 49.217151 L 69.733211 55.871008 L 71.471606 55.871008 L 71.471606 49.217151 L 73.190365 49.217151 L 73.190365 47.628617 L 71.471606 47.628617 L 71.471606 45.230831 L 69.733211 45.230831 z M 19.989478 47.398657 C 18.83721 47.398657 17.814473 47.838253 16.921965 48.71744 C 16.036117 49.589966 15.593363 50.589047 15.593363 51.714673 C 15.593363 52.893582 16.039792 53.919478 16.9323 54.792004 C 17.831468 55.664531 18.890494 56.100452 20.109367 56.100452 C 21.248314 56.100452 22.250552 55.660856 23.116418 54.781669 C 23.988945 53.895821 24.425382 52.873601 24.425382 51.714673 C 24.425382 50.562405 23.982112 49.556491 23.096265 48.697286 C 22.210417 47.83142 21.175048 47.398657 19.989478 47.398657 z M 45.835445 47.398657 C 44.683177 47.398657 43.660957 47.838253 42.768449 48.71744 C 41.882601 49.589966 41.439331 50.589047 41.439331 51.714673 C 41.439331 52.893582 41.885759 53.919478 42.778267 54.792004 C 43.677436 55.664531 44.736462 56.100452 45.955334 56.100452 C 47.094281 56.100452 48.09652 55.660856 48.962386 54.781669 C 49.834913 53.895821 50.27135 52.873601 50.27135 51.714673 C 50.27135 50.562405 49.828596 49.556491 48.942749 48.697286 C 48.056901 47.83142 47.021015 47.398657 45.835445 47.398657 z M 56.635303 47.398657 C 56.042517 47.398657 55.559801 47.551678 55.186812 47.858061 C 54.820484 48.157784 54.443991 48.647334 54.057682 49.326705 L 54.057682 47.628617 L 52.359595 47.628617 L 52.359595 55.871008 L 54.09799 55.871008 L 54.09799 51.304879 C 54.09799 50.692112 54.294132 50.182581 54.687101 49.77629 C 55.086732 49.363338 55.579956 49.157206 56.166081 49.157206 C 56.272649 49.157206 56.492447 49.190335 56.825472 49.256942 L 57.354639 47.518547 C 57.041595 47.438621 56.801815 47.398657 56.635303 47.398657 z M 62.879883 47.398657 C 61.674331 47.398657 60.651594 47.828262 59.81237 48.687467 C 58.979807 49.540013 58.563867 50.549084 58.563867 51.714673 C 58.563867 52.960188 58.976649 54.00239 59.802551 54.841614 C 60.628454 55.680838 61.654349 56.100452 62.879883 56.100452 C 64.478405 56.100452 65.753553 55.484696 66.706006 54.252502 L 65.437349 53.293388 C 64.771299 54.11263 63.94522 54.522253 62.959465 54.522253 C 62.320056 54.522253 61.72744 54.328753 61.181278 53.942444 C 60.641777 53.549474 60.295257 52.930044 60.142065 52.084159 L 67.175745 52.084159 C 67.189065 50.698774 66.77261 49.573487 65.926725 48.707621 C 65.080841 47.835095 64.065453 47.398657 62.879883 47.398657 z M 78.475313 47.398657 C 77.429614 47.398657 76.517293 47.83142 75.738013 48.697286 C 74.965394 49.556491 74.57891 50.562405 74.57891 51.714673 C 74.57891 52.933546 74.961719 53.969432 75.727677 54.821977 C 76.500296 55.674521 77.429441 56.100452 78.515104 56.100452 C 79.76728 56.100452 80.816314 55.477863 81.662199 54.232349 L 81.662199 55.871008 L 83.400594 55.871008 L 83.400594 47.628617 L 81.662199 47.628617 L 81.662199 49.307068 C 81.342495 48.740924 80.892908 48.281347 80.313444 47.928341 C 79.73398 47.575334 79.121383 47.398657 78.475313 47.398657 z M 62.879883 48.997009 C 63.972206 48.997009 64.797768 49.563327 65.357251 50.695614 L 60.321899 50.695614 C 60.834759 49.563327 61.687652 48.997009 62.879883 48.997009 z M 79.144523 49.037317 C 79.897161 49.037317 80.543405 49.307068 81.082906 49.84657 C 81.622408 50.37941 81.892159 51.02198 81.892159 51.774618 C 81.892159 52.520595 81.622408 53.166839 81.082906 53.713 C 80.543405 54.252502 79.897161 54.522253 79.144523 54.522253 C 78.385226 54.522253 77.739498 54.248827 77.206657 53.702665 C 76.673816 53.156504 76.407222 52.493952 76.407222 51.714673 C 76.407222 50.995338 76.680132 50.369075 77.226294 49.836235 C 77.772456 49.303394 78.411868 49.037317 79.144523 49.037317 z M 20.049422 49.116899 C 20.782078 49.116899 21.414657 49.37666 21.947498 49.896179 C 22.480338 50.409039 22.746932 51.01532 22.746932 51.714673 C 22.746932 52.420687 22.47718 53.040117 21.937679 53.572957 C 21.398178 54.105798 20.768757 54.372392 20.049422 54.372392 C 19.310106 54.372392 18.663861 54.112631 18.111039 53.593111 C 17.564878 53.073592 17.291968 52.467311 17.291968 51.774618 C 17.291968 51.048622 17.56172 50.426034 18.101221 49.906514 C 18.647383 49.380334 19.296785 49.116899 20.049422 49.116899 z M 45.89539 49.116899 C 46.628046 49.116899 47.260624 49.37666 47.793465 49.896179 C 48.326306 50.409039 48.5929 51.01532 48.5929 51.714673 C 48.5929 52.420687 48.323148 53.040117 47.783647 53.572957 C 47.244146 54.105798 46.614725 54.372392 45.89539 54.372392 C 45.156074 54.372392 44.509829 54.112631 43.957007 53.593111 C 43.410845 53.073592 43.137935 52.467311 43.137935 51.774618 C 43.137935 51.048622 43.407688 50.426034 43.947188 49.906514 C 44.49335 49.380334 45.142753 49.116899 45.89539 49.116899 z " />
    <path
       id="path648"
       style="font-size:8.11389px;line-height:1.25;stroke-width:0.264583;font-family:'Tw Cen MT';-inkscape-font-specification:'Tw Cen MT';fill:#000080"
       d="M 25.289929 60.535323 L 25.289929 65.677645 L 25.979293 65.677645 L 25.979293 60.535323 L 25.289929 60.535323 z M 41.414526 60.535323 L 41.414526 63.090723 C 41.282464 62.860935 41.105673 62.674728 40.883809 62.5321 C 40.661945 62.389474 40.42274 62.31816 40.166541 62.31816 C 39.73866 62.31816 39.370207 62.487027 39.061182 62.825106 C 38.752157 63.160543 38.597644 63.562185 38.597644 64.029683 C 38.597644 64.507748 38.749688 64.917313 39.05343 65.258032 C 39.357173 65.598752 39.721664 65.769112 40.146903 65.769112 C 40.67251 65.769112 41.097405 65.511591 41.422278 64.996549 L 41.422278 65.677645 L 42.096139 65.677645 L 42.096139 60.535323 L 41.414526 60.535323 z M 58.985547 60.535323 L 58.985547 65.677645 L 59.666642 65.677645 L 59.666642 64.988281 C 59.801345 65.228634 59.986577 65.418803 60.221647 65.558789 C 60.456717 65.698774 60.704821 65.769112 60.966305 65.769112 C 61.373055 65.769112 61.72813 65.595766 62.031873 65.249764 C 62.338256 64.901121 62.491793 64.494542 62.491793 64.029683 C 62.491793 63.564826 62.335787 63.163184 62.024121 62.825106 C 61.715097 62.487027 61.349112 62.31816 60.926514 62.31816 C 60.379778 62.31816 59.95982 62.563796 59.666642 63.055066 L 59.666642 60.535323 L 58.985547 60.535323 z M 8.7131632 60.630408 L 8.7131632 65.677645 L 9.3947754 65.677645 L 9.3947754 63.601803 C 10.150169 63.609726 10.712755 63.467099 11.082528 63.173922 C 11.454943 62.880744 11.64115 62.517745 11.64115 62.084583 C 11.64115 61.654061 11.465335 61.303924 11.11405 61.034517 C 10.762766 60.765111 10.30072 60.630408 9.7275716 60.630408 L 8.7131632 60.630408 z M 43.561682 60.808691 C 43.416414 60.808691 43.291128 60.861688 43.185478 60.967338 C 43.079828 61.070346 43.026831 61.193164 43.026831 61.335791 C 43.026831 61.481059 43.079828 61.604853 43.185478 61.707861 C 43.291128 61.81087 43.416414 61.862374 43.561682 61.862374 C 43.704309 61.862374 43.827127 61.81087 43.930135 61.707861 C 44.035785 61.604853 44.088782 61.481059 44.088782 61.335791 C 44.088782 61.193164 44.035785 61.070346 43.930135 60.967338 C 43.827127 60.861688 43.704309 60.808691 43.561682 60.808691 z M 63.76355 60.808691 C 63.618282 60.808691 63.492479 60.861688 63.386829 60.967338 C 63.281179 61.070346 63.228699 61.193164 63.228699 61.335791 C 63.228699 61.481059 63.281179 61.604853 63.386829 61.707861 C 63.492479 61.81087 63.618282 61.862374 63.76355 61.862374 C 63.906176 61.862374 64.028994 61.81087 64.132003 61.707861 C 64.237652 61.604853 64.290133 61.481059 64.290133 61.335791 C 64.290133 61.193164 64.237652 61.070346 64.132003 60.967338 C 64.028994 60.861688 63.906176 60.808691 63.76355 60.808691 z M 9.3947754 61.232438 C 10.033955 61.232438 10.447482 61.318623 10.63501 61.490304 C 10.825179 61.661984 10.920264 61.865015 10.920264 62.100085 C 10.920264 62.411751 10.79446 62.63907 10.543542 62.781698 C 10.295267 62.921699 9.9124583 62.994505 9.3947754 62.999772 L 9.3947754 61.232438 z M 72.966606 61.458264 L 72.966606 62.401359 L 72.424003 62.401359 L 72.424003 63.039046 L 72.966606 63.039046 L 72.966606 65.677645 L 73.655969 65.677645 L 73.655969 63.039046 L 74.337581 63.039046 L 74.337581 62.409111 L 73.655969 62.409111 L 73.655969 61.458264 L 72.966606 61.458264 z M 13.697355 62.31816 C 13.240421 62.31816 12.834818 62.492483 12.480892 62.841125 C 12.129607 63.187128 11.954309 63.583315 11.954309 64.029683 C 11.954309 64.497183 12.1311 64.903762 12.485026 65.249764 C 12.841593 65.595766 13.261551 65.769112 13.744897 65.769112 C 14.196549 65.769112 14.594229 65.59479 14.93759 65.246147 C 15.283592 64.894862 15.456421 64.489259 15.456421 64.029683 C 15.456421 63.57275 15.280606 63.174094 14.929321 62.833374 C 14.578037 62.490013 14.167495 62.31816 13.697355 62.31816 z M 17.980298 62.31816 C 17.745227 62.31816 17.553565 62.379081 17.405656 62.500578 C 17.260388 62.619434 17.11133 62.813565 16.958138 63.082971 L 16.958138 62.409111 L 16.284277 62.409111 L 16.284277 65.677645 L 16.973641 65.677645 L 16.973641 63.867419 C 16.973641 63.624426 17.051902 63.42237 17.207735 63.261255 C 17.36621 63.097498 17.561317 63.015275 17.793746 63.015275 C 17.836006 63.015275 17.923167 63.028653 18.055229 63.055066 L 18.265552 62.365702 C 18.141416 62.334009 18.046331 62.31816 17.980298 62.31816 z M 22.694739 62.31816 C 22.216675 62.31816 21.811071 62.48852 21.478276 62.82924 C 21.148121 63.167318 20.983215 63.567467 20.983215 64.029683 C 20.983215 64.523595 21.147145 64.937121 21.474658 65.269918 C 21.802172 65.602713 22.208751 65.769112 22.694739 65.769112 C 23.328635 65.769112 23.834262 65.524452 24.211959 65.035824 L 23.709147 64.655485 C 23.445023 64.980357 23.117164 65.142794 22.726261 65.142794 C 22.472702 65.142794 22.237976 65.066542 22.021395 64.91335 C 21.807452 64.757518 21.669764 64.511882 21.609017 64.176444 L 24.398511 64.176444 C 24.403793 63.627067 24.238371 63.180352 23.902934 62.836991 C 23.567497 62.490989 23.164879 62.31816 22.694739 62.31816 z M 30.792952 62.31816 C 30.602783 62.31816 30.433399 62.365702 30.28549 62.460787 C 30.140222 62.555872 29.987202 62.706423 29.826086 62.912439 L 29.826086 62.409111 L 29.144474 62.409111 L 29.144474 65.677645 L 29.826086 65.677645 L 29.826086 63.83538 C 29.826086 63.57918 29.898892 63.364263 30.044161 63.189941 C 30.189429 63.01562 30.36622 62.928459 30.574878 62.928459 C 30.926162 62.928459 31.101978 63.142399 31.101978 63.57028 L 31.101978 65.677645 L 31.791341 65.677645 L 31.791341 63.898942 C 31.791341 63.626895 31.861162 63.3986 32.001147 63.213713 C 32.143774 63.028826 32.316604 62.93621 32.519979 62.93621 C 32.876546 62.93621 33.05483 63.116963 33.05483 63.478813 L 33.05483 65.677645 L 33.740576 65.677645 L 33.740576 63.300529 C 33.740576 63.033764 33.646467 62.803975 33.45894 62.611165 C 33.271412 62.415714 33.048571 62.31816 32.78973 62.31816 C 32.578431 62.31816 32.392223 62.372133 32.231108 62.480424 C 32.072633 62.588715 31.907211 62.76206 31.735531 62.999772 C 31.637805 62.76206 31.517972 62.588715 31.375346 62.480424 C 31.23536 62.372133 31.041229 62.31816 30.792952 62.31816 z M 36.180737 62.31816 C 35.702673 62.31816 35.297587 62.48852 34.964791 62.82924 C 34.634636 63.167318 34.469214 63.567467 34.469214 64.029683 C 34.469214 64.523595 34.633143 64.937121 34.960657 65.269918 C 35.28817 65.602713 35.694749 65.769112 36.180737 65.769112 C 36.814634 65.769112 37.320777 65.524452 37.698474 65.035824 L 37.195146 64.655485 C 36.931022 64.980357 36.60368 65.142794 36.212777 65.142794 C 35.959218 65.142794 35.723975 65.066542 35.507393 64.91335 C 35.293452 64.757518 35.156279 64.511882 35.095532 64.176444 L 37.884509 64.176444 C 37.889791 63.627067 37.724886 63.180352 37.389449 62.836991 C 37.054012 62.490989 36.650878 62.31816 36.180737 62.31816 z M 46.493803 62.31816 C 46.036869 62.31816 45.631265 62.492483 45.27734 62.841125 C 44.926055 63.187128 44.75024 63.583315 44.75024 64.029683 C 44.75024 64.497183 44.927547 64.903762 45.281474 65.249764 C 45.638041 65.595766 46.057999 65.769112 46.541345 65.769112 C 46.992997 65.769112 47.39016 65.59479 47.733521 65.246147 C 48.079523 64.894862 48.252869 64.489259 48.252869 64.029683 C 48.252869 63.57275 48.077054 63.174094 47.725769 62.833374 C 47.374485 62.490013 46.963943 62.31816 46.493803 62.31816 z M 50.479089 62.31816 C 50.064415 62.31816 49.702909 62.490013 49.393884 62.833374 C 49.087501 63.174094 48.933964 63.57275 48.933964 64.029683 C 48.933964 64.51303 49.086008 64.923571 49.38975 65.26165 C 49.696133 65.599728 50.064587 65.769112 50.495109 65.769112 C 50.991661 65.769112 51.407657 65.521984 51.743095 65.028072 L 51.743095 65.677645 L 52.432458 65.677645 L 52.432458 62.409111 L 51.743095 62.409111 L 51.743095 63.074703 C 51.616315 62.850198 51.438031 62.667952 51.208244 62.527966 C 50.978456 62.387981 50.73529 62.31816 50.479089 62.31816 z M 55.05142 62.31816 C 54.861251 62.31816 54.691867 62.365702 54.543958 62.460787 C 54.39869 62.555872 54.24567 62.706423 54.084554 62.912439 L 54.084554 62.409111 L 53.402942 62.409111 L 53.402942 65.677645 L 54.084554 65.677645 L 54.084554 63.83538 C 54.084554 63.57918 54.157361 63.364263 54.302629 63.189941 C 54.447897 63.01562 54.624688 62.928459 54.833346 62.928459 C 55.18463 62.928459 55.360445 63.142399 55.360445 63.57028 L 55.360445 65.677645 L 56.049809 65.677645 L 56.049809 63.898942 C 56.049809 63.626895 56.11963 63.3986 56.259615 63.213713 C 56.402242 63.028826 56.575071 62.93621 56.778446 62.93621 C 57.135013 62.93621 57.313298 63.116963 57.313298 63.478813 L 57.313298 65.677645 L 57.999044 65.677645 L 57.999044 63.300529 C 57.999044 63.033764 57.904935 62.803975 57.717407 62.611165 C 57.529879 62.415714 57.307039 62.31816 57.048197 62.31816 C 56.836899 62.31816 56.650691 62.372133 56.489575 62.480424 C 56.331101 62.588715 56.165679 62.76206 55.993998 62.999772 C 55.896272 62.76206 55.776441 62.588715 55.633813 62.480424 C 55.493828 62.372133 55.299697 62.31816 55.05142 62.31816 z M 66.695154 62.31816 C 66.21709 62.31816 65.811486 62.48852 65.478691 62.82924 C 65.148536 63.167318 64.98363 63.567467 64.98363 64.029683 C 64.98363 64.523595 65.14756 64.937121 65.475073 65.269918 C 65.802586 65.602713 66.209166 65.769112 66.695154 65.769112 C 67.329051 65.769112 67.834677 65.524452 68.212374 65.035824 L 67.709562 64.655485 C 67.445438 64.980357 67.11758 65.142794 66.726676 65.142794 C 66.473118 65.142794 66.238392 65.066542 66.02181 64.91335 C 65.807868 64.757518 65.670179 64.511882 65.609432 64.176444 L 68.398926 64.176444 C 68.404208 63.627067 68.238786 63.180352 67.903349 62.836991 C 67.567912 62.490989 67.165294 62.31816 66.695154 62.31816 z M 70.815316 62.31816 C 70.617223 62.31816 70.437963 62.369665 70.276847 62.472673 C 70.115732 62.57304 69.935955 62.733007 69.737862 62.95223 L 69.737862 62.409111 L 69.064518 62.409111 L 69.064518 65.677645 L 69.745614 65.677645 L 69.745614 63.898942 C 69.745614 63.624254 69.828813 63.390503 69.995211 63.197693 C 70.161609 63.002241 70.359702 62.904687 70.58949 62.904687 C 70.766453 62.904687 70.912066 62.962623 71.025639 63.078837 C 71.141853 63.195052 71.199788 63.34164 71.199788 63.518604 L 71.199788 65.677645 L 71.889152 65.677645 L 71.889152 63.316549 C 71.889152 63.04186 71.783675 62.806617 71.572375 62.611165 C 71.363718 62.415714 71.111134 62.31816 70.815316 62.31816 z M 76.504891 62.31816 C 76.026827 62.31816 75.621223 62.48852 75.288428 62.82924 C 74.958273 63.167318 74.793368 63.567467 74.793368 64.029683 C 74.793368 64.523595 74.95678 64.937121 75.284294 65.269918 C 75.611807 65.602713 76.018903 65.769112 76.504891 65.769112 C 77.138788 65.769112 77.644414 65.524452 78.022111 65.035824 L 77.518783 64.655485 C 77.254659 64.980357 76.927317 65.142794 76.536414 65.142794 C 76.282854 65.142794 76.047611 65.066542 75.83103 64.91335 C 75.617088 64.757518 75.479916 64.511882 75.419169 64.176444 L 78.208146 64.176444 C 78.213429 63.627067 78.048524 63.180352 77.713086 62.836991 C 77.377649 62.490989 76.975031 62.31816 76.504891 62.31816 z M 43.221134 62.409111 L 43.221134 65.677645 L 43.902747 65.677645 L 43.902747 62.409111 L 43.221134 62.409111 z M 63.422485 62.409111 L 63.422485 65.677645 L 64.104097 65.677645 L 64.104097 62.409111 L 63.422485 62.409111 z M 60.665031 62.943962 C 60.968773 62.943962 61.227787 63.050932 61.441728 63.264872 C 61.655667 63.476171 61.762638 63.731224 61.762638 64.029683 C 61.762638 64.328144 61.65716 64.584172 61.445862 64.798112 C 61.237204 65.012052 60.987607 65.119023 60.69707 65.119023 C 60.382763 65.119023 60.117318 65.015038 59.900736 64.80638 C 59.686796 64.595081 59.579826 64.336067 59.579826 64.029683 C 59.579826 63.736506 59.686796 63.482947 59.900736 63.269006 C 60.117318 63.052425 60.371854 62.943962 60.665031 62.943962 z M 22.694739 62.95223 C 23.127902 62.95223 23.455244 63.176564 23.677108 63.625574 L 21.68033 63.625574 C 21.883706 63.176564 22.221957 62.95223 22.694739 62.95223 z M 36.180737 62.95223 C 36.6139 62.95223 36.941759 63.176564 37.163623 63.625574 L 35.166846 63.625574 C 35.370221 63.176564 35.707956 62.95223 36.180737 62.95223 z M 40.408386 62.95223 C 40.704205 62.95223 40.95874 63.060177 41.172681 63.276758 C 41.38662 63.490698 41.493591 63.744258 41.493591 64.037435 C 41.493591 64.341177 41.38662 64.598698 41.172681 64.809998 C 40.95874 65.021297 40.69875 65.127291 40.392367 65.127291 C 40.104471 65.127291 39.852405 65.018828 39.635824 64.802246 C 39.419242 64.583024 39.310779 64.327971 39.310779 64.037435 C 39.310779 63.733693 39.416256 63.477664 39.627555 63.269006 C 39.841496 63.057708 40.102003 62.95223 40.408386 62.95223 z M 66.695154 62.95223 C 67.128317 62.95223 67.455659 63.176564 67.677523 63.625574 L 65.680745 63.625574 C 65.884121 63.176564 66.222372 62.95223 66.695154 62.95223 z M 76.504891 62.95223 C 76.938054 62.95223 77.265396 63.176564 77.48726 63.625574 L 75.490483 63.625574 C 75.693858 63.176564 76.032109 62.95223 76.504891 62.95223 z M 50.744706 62.967733 C 51.043166 62.967733 51.299194 63.074703 51.513135 63.288643 C 51.727075 63.499942 51.834045 63.754994 51.834045 64.053455 C 51.834045 64.349273 51.727075 64.605301 51.513135 64.821883 C 51.299194 65.035823 51.043166 65.142794 50.744706 65.142794 C 50.443605 65.142794 50.187577 65.034847 49.976278 64.818266 C 49.764979 64.601684 49.658984 64.338708 49.658984 64.029683 C 49.658984 63.74443 49.767447 63.496325 49.984029 63.285026 C 50.20061 63.073727 50.45417 62.967733 50.744706 62.967733 z M 13.721126 62.999772 C 14.011663 62.999772 14.262753 63.102781 14.474052 63.308797 C 14.68535 63.512172 14.790828 63.752354 14.790828 64.029683 C 14.790828 64.309655 14.683858 64.555291 14.469918 64.766589 C 14.255977 64.977888 14.00638 65.083366 13.721126 65.083366 C 13.427949 65.083366 13.171921 64.980357 12.952698 64.774341 C 12.736117 64.568324 12.627653 64.328143 12.627653 64.053455 C 12.627653 63.76556 12.734624 63.518431 12.948564 63.312415 C 13.165145 63.103757 13.422667 62.999772 13.721126 62.999772 z M 46.517574 62.999772 C 46.80811 62.999772 47.058684 63.102781 47.269983 63.308797 C 47.481281 63.512172 47.587276 63.752354 47.587276 64.029683 C 47.587276 64.309655 47.480305 64.555291 47.266366 64.766589 C 47.052425 64.977888 46.802828 65.083366 46.517574 65.083366 C 46.224397 65.083366 45.967852 64.980357 45.748629 64.774341 C 45.532048 64.568324 45.424101 64.328143 45.424101 64.053455 C 45.424101 63.76556 45.531072 63.518431 45.745011 63.312415 C 45.961593 63.103757 46.219114 62.999772 46.517574 62.999772 z " />
  </g>
</svg>
