<?xml version="1.0" encoding="UTF-8" standalone="no"?>
<!-- Created with Inkscape (http://www.inkscape.org/) -->

<svg
   width="52mm"
   height="45mm"
   viewBox="0 0 52 45"
   version="1.1"
   id="svg5"
   inkscape:version="1.2.2 (732a01da63, 2022-12-09)"
   sodipodi:docname="logoVVSoloMio.svg"
   xmlns:inkscape="http://www.inkscape.org/namespaces/inkscape"
   xmlns:sodipodi="http://sodipodi.sourceforge.net/DTD/sodipodi-0.dtd"
   xmlns="http://www.w3.org/2000/svg"
   xmlns:svg="http://www.w3.org/2000/svg">
  <sodipodi:namedview
     id="namedview7"
     pagecolor="#ffffff"
     bordercolor="#666666"
     borderopacity="1.0"
     inkscape:pageshadow="2"
     inkscape:pageopacity="0.0"
     inkscape:pagecheckerboard="0"
     inkscape:document-units="mm"
     showgrid="false"
     inkscape:zoom="1.4142136"
     inkscape:cx="-67.882251"
     inkscape:cy="195.86858"
     inkscape:window-width="1366"
     inkscape:window-height="715"
     inkscape:window-x="-8"
     inkscape:window-y="-8"
     inkscape:window-maximized="1"
     inkscape:current-layer="layer2"
     width="209mm"
     inkscape:showpageshadow="0"
     inkscape:deskcolor="#d1d1d1" />
  <defs
     id="defs2" />
  <g
     inkscape:label="Capa 1"
     inkscape:groupmode="layer"
     id="layer1">
    <g
       aria-label="Volvoreta"
       transform="matrix(0.58814688,-0.31840303,0.33645674,0.53927118,6.922156,22.766995)"
       id="text1053"
       style="font-size:10.5833px;line-height:1.25;display:inline;fill:#ff0000;stroke-width:0.264583">
      <path
         d="m 22.411709,38.738166 q 0.04703,-0.872061 0.769784,-1.511025 0.728192,-0.643846 1.620894,-0.595701 0.918503,0.04954 1.568622,0.757365 0.650397,0.702669 0.602253,1.595371 -0.04842,0.897863 -0.761412,1.547703 -0.707552,0.644959 -1.589933,0.597371 -0.944304,-0.05093 -1.604465,-0.764473 -0.655001,-0.713268 -0.605743,-1.626611 z m 3.694651,0.199257 q 0.02922,-0.541813 -0.362161,-0.961406 -0.391103,-0.424754 -0.958717,-0.455366 -0.583095,-0.03145 -1.02821,0.353384 -0.439677,0.379948 -0.470011,0.942402 -0.02894,0.536653 0.372481,0.961963 0.406584,0.425588 0.979358,0.456479 0.557294,0.03005 0.997528,-0.360213 0.440234,-0.390269 0.469732,-0.937243 z"
         style="font-family:'Tw Cen MT';-inkscape-font-specification:'Tw Cen MT'"
         id="path1393" />
      <path
         d="m 28.282117,36.663004 0.10929,0.871672 v 0 q 0.23182,-0.56029 0.484902,-0.826386 0.257566,-0.271865 0.713912,-0.329082 0.128187,-0.01607 0.376893,0.01524 l -0.159895,0.926255 q -0.262803,-0.01913 -0.344842,-0.0088 -0.451219,0.05657 -0.719009,0.41305 -0.263305,0.350707 -0.20416,0.822435 l 0.293797,2.343259 -0.892181,0.111862 -0.530379,-4.230173 z"
         style="font-family:'Tw Cen MT';-inkscape-font-specification:'Tw Cen MT'"
         id="path1395" />
      <path
         d="m 34.704009,37.302309 -3.43392,1.201376 q 0.328913,0.580222 0.824693,0.729781 0.498951,0.142975 0.967212,-0.02085 0.721904,-0.252562 0.999777,-1.023172 l 0.783296,0.251536 q -0.381813,1.146409 -1.552468,1.555969 -0.897501,0.313996 -1.717359,-0.08899 -0.819857,-0.402988 -1.138972,-1.315123 -0.298638,-0.853603 0.09265,-1.691264 0.394456,-0.844246 1.277324,-1.153122 0.868236,-0.303757 1.711259,0.1185 0.841316,0.417379 1.186512,1.435359 z m -3.583324,0.492655 2.458375,-0.860076 q -0.699834,-0.685868 -1.499782,-0.406002 -0.873113,0.305463 -0.958593,1.266078 z"
         style="font-family:'Tw Cen MT';-inkscape-font-specification:'Tw Cen MT'"
         id="path1397" />
      <path
         d="m 33.60531,33.73263 0.766795,-0.469602 0.647727,1.057649 0.757982,-0.464204 0.429119,0.700693 -0.757982,0.464204 1.797441,2.934976 -0.766795,0.469602 -1.797442,-2.934977 -0.603741,0.369744 -0.434517,-0.709506 0.603742,-0.369744 z"
         style="font-family:'Tw Cen MT';-inkscape-font-specification:'Tw Cen MT'"
         id="path1399" />
      <path
         d="m 38.289014,31.527649 0.642253,-0.629295 2.983729,3.045163 -0.642253,0.629296 -0.593129,-0.605342 q 0.207541,1.149551 -0.486387,1.829479 -0.601651,0.589513 -1.492749,0.536582 -0.887408,-0.05655 -1.549253,-0.732021 -0.625679,-0.638562 -0.664057,-1.534245 -0.0383,-0.902991 0.5412,-1.470804 0.358038,-0.350814 0.870846,-0.469833 0.512808,-0.119019 0.997396,0.02113 z m 1.585802,1.448627 q -0.408681,-0.417095 -0.996992,-0.419436 -0.591927,-0.006 -1.009023,0.402649 -0.406021,0.397831 -0.419361,0.989684 -0.01334,0.591853 0.377258,0.990493 0.423147,0.431859 1.015,0.445199 0.591853,0.01334 1.012639,-0.398958 0.417096,-0.40868 0.423127,-1.000608 0.0024,-0.595619 -0.402648,-1.009023 z"
         style="font-family:'Tw Cen MT';-inkscape-font-specification:'Tw Cen MT'"
         id="path1401" />
      <path
         d="m 17.474426,35.680489 q 0.202813,-0.616997 0.872387,-0.943999 0.674626,-0.329516 1.341083,-0.13276 0.68572,0.202442 1.042073,0.828318 0.357553,0.622225 0.149944,1.253827 -0.208814,0.635251 -0.873083,0.971829 -0.659216,0.334066 -1.317969,0.139584 -0.704982,-0.208128 -1.067839,-0.83993 -0.359005,-0.630664 -0.146594,-1.27687 z m 2.758286,0.814316 q 0.126009,-0.383341 -0.08977,-0.755444 -0.214582,-0.375754 -0.638341,-0.500858 -0.435317,-0.128516 -0.846015,0.06664 -0.405647,0.192645 -0.536456,0.590591 -0.124808,0.379691 0.0975,0.757715 0.22614,0.379166 0.653752,0.505408 0.416053,0.122829 0.824101,-0.07712 0.408047,-0.199948 0.535255,-0.586941 z"
         style="font-size:10.5833px;line-height:1.25;font-family:'Tw Cen MT';-inkscape-font-specification:'Tw Cen MT';display:inline;fill:#ff0000;stroke-width:0.201115"
         id="path1387"
         transform="matrix(1.1038704,0.65176054,-0.67047263,1.172027,11.541102,-27.659782)" />
      <path
         d="m 22.273174,33.485683 0.687802,0.133508 -1.050901,4.862503 -0.687803,-0.133509 z"
         style="font-size:10.5833px;line-height:1.25;font-family:'Tw Cen MT';-inkscape-font-specification:'Tw Cen MT';display:inline;fill:#ff0000;stroke-width:0.201115"
         id="path1389"
         transform="matrix(1.1038704,0.65176054,-0.67047263,1.172027,11.541102,-27.659782)" />
    </g>
  </g>
  <g
     inkscape:groupmode="layer"
     id="layer2"
     inkscape:label="Dibujar">
    <path
       style="fill:#ff0000;fill-opacity:1;stroke:#ff0000;stroke-width:0.264583px;stroke-linecap:butt;stroke-linejoin:miter;stroke-opacity:1"
       d="m 44.19893,22.340837 -0.92811,0.19263 c 1.15254,-1.85625 3.21904,-4.46508 -0.22766,-5.48119 -5.64603,-1.27857 -11.11452,0.38076 -16.671228,3.46734 -0.358528,-5.2201 -1.80004,-3.22728 -3.257193,-0.66545 -5.200146,-6.04404 -9.94646,-13.2878302 -15.4454009,-11.3126202 -1.981615,1.41705 -0.502438,10.2950302 5.3586089,12.6084902 -4.8835609,18.74594 1.032455,12.493627 10.597374,5.192574 5.267694,15.525251 6.302591,14.723163 10.346729,0.411196 3.00913,1.19195 9.79705,-0.72432 6.68951,-6.33926 l -0.66546,0.98066 -0.10506,-2.3816 2.66179,0.94563 -1.1908,0.24517 c 2.13644,2.41662 0.92826,8.60868 -6.65448,7.35495 C 29.731326,42.075211 29.959616,44.194628 23.297395,28.030711 14.520032,33.676851 6.8536313,42.888785 12.117334,21.605347 5.9755341,18.148617 4.6793001,10.241997 6.8988191,7.9461468 10.37237,6.1049668 14.932596,7.3064768 23.044691,18.453227 c 1.594556,-2.04317 3.158083,-3.71399 4.202829,0.84056 5.64689,-3.34576 10.83529,-4.06687 16.21592,-3.15212 4.82062,1.62724 1.46549,6.36806 0.73549,7.1273 z"
       id="path870"
       sodipodi:nodetypes="ccccccccccccccccccccccc" />
  </g>
</svg>
