<?xml version="1.0" encoding="UTF-8" standalone="no"?>
<!-- Created with Inkscape (http://www.inkscape.org/) -->

<svg
   width="52mm"
   height="50mm"
   viewBox="0 0 52 50"
   version="1.1"
   id="svg5"
   inkscape:version="1.2.2 (732a01da63, 2022-12-09)"
   sodipodi:docname="logoVVSoloMioL.svg"
   xmlns:inkscape="http://www.inkscape.org/namespaces/inkscape"
   xmlns:sodipodi="http://sodipodi.sourceforge.net/DTD/sodipodi-0.dtd"
   xmlns="http://www.w3.org/2000/svg"
   xmlns:svg="http://www.w3.org/2000/svg">
  <sodipodi:namedview
     id="namedview7"
     pagecolor="#ffffff"
     bordercolor="#666666"
     borderopacity="1.0"
     inkscape:pageshadow="2"
     inkscape:pageopacity="0.0"
     inkscape:pagecheckerboard="0"
     inkscape:document-units="mm"
     showgrid="false"
     inkscape:zoom="1.4142136"
     inkscape:cx="-67.175142"
     inkscape:cy="196.57568"
     inkscape:window-width="1366"
     inkscape:window-height="715"
     inkscape:window-x="-8"
     inkscape:window-y="-8"
     inkscape:window-maximized="1"
     inkscape:current-layer="layer2"
     width="209mm"
     inkscape:showpageshadow="0"
     inkscape:deskcolor="#d1d1d1" />
  <defs
     id="defs2" />
  <g
     inkscape:label="Capa 1"
     inkscape:groupmode="layer"
     id="layer1">
    <g
       aria-label="Volvoreta"
       transform="matrix(0.58814688,-0.31840303,0.33645674,0.53927118,6.922156,22.766995)"
       id="text1053"
       style="font-size:10.5833px;line-height:1.25;display:inline;fill:#ff0000;stroke-width:0.264583">
      <path
         d="m 22.411709,38.738166 q 0.04703,-0.872061 0.769784,-1.511025 0.728192,-0.643846 1.620894,-0.595701 0.918503,0.04954 1.568622,0.757365 0.650397,0.702669 0.602253,1.595371 -0.04842,0.897863 -0.761412,1.547703 -0.707552,0.644959 -1.589933,0.597371 -0.944304,-0.05093 -1.604465,-0.764473 -0.655001,-0.713268 -0.605743,-1.626611 z m 3.694651,0.199257 q 0.02922,-0.541813 -0.362161,-0.961406 -0.391103,-0.424754 -0.958717,-0.455366 -0.583095,-0.03145 -1.02821,0.353384 -0.439677,0.379948 -0.470011,0.942402 -0.02894,0.536653 0.372481,0.961963 0.406584,0.425588 0.979358,0.456479 0.557294,0.03005 0.997528,-0.360213 0.440234,-0.390269 0.469732,-0.937243 z"
         style="font-family:'Tw Cen MT';-inkscape-font-specification:'Tw Cen MT'"
         id="path1393" />
      <path
         d="m 28.282117,36.663004 0.10929,0.871672 v 0 q 0.23182,-0.56029 0.484902,-0.826386 0.257566,-0.271865 0.713912,-0.329082 0.128187,-0.01607 0.376893,0.01524 l -0.159895,0.926255 q -0.262803,-0.01913 -0.344842,-0.0088 -0.451219,0.05657 -0.719009,0.41305 -0.263305,0.350707 -0.20416,0.822435 l 0.293797,2.343259 -0.892181,0.111862 -0.530379,-4.230173 z"
         style="font-family:'Tw Cen MT';-inkscape-font-specification:'Tw Cen MT'"
         id="path1395" />
      <path
         d="m 34.704009,37.302309 -3.43392,1.201376 q 0.328913,0.580222 0.824693,0.729781 0.498951,0.142975 0.967212,-0.02085 0.721904,-0.252562 0.999777,-1.023172 l 0.783296,0.251536 q -0.381813,1.146409 -1.552468,1.555969 -0.897501,0.313996 -1.717359,-0.08899 -0.819857,-0.402988 -1.138972,-1.315123 -0.298638,-0.853603 0.09265,-1.691264 0.394456,-0.844246 1.277324,-1.153122 0.868236,-0.303757 1.711259,0.1185 0.841316,0.417379 1.186512,1.435359 z m -3.583324,0.492655 2.458375,-0.860076 q -0.699834,-0.685868 -1.499782,-0.406002 -0.873113,0.305463 -0.958593,1.266078 z"
         style="font-family:'Tw Cen MT';-inkscape-font-specification:'Tw Cen MT'"
         id="path1397" />
      <path
         d="m 33.60531,33.73263 0.766795,-0.469602 0.647727,1.057649 0.757982,-0.464204 0.429119,0.700693 -0.757982,0.464204 1.797441,2.934976 -0.766795,0.469602 -1.797442,-2.934977 -0.603741,0.369744 -0.434517,-0.709506 0.603742,-0.369744 z"
         style="font-family:'Tw Cen MT';-inkscape-font-specification:'Tw Cen MT'"
         id="path1399" />
      <path
         d="m 38.289014,31.527649 0.642253,-0.629295 2.983729,3.045163 -0.642253,0.629296 -0.593129,-0.605342 q 0.207541,1.149551 -0.486387,1.829479 -0.601651,0.589513 -1.492749,0.536582 -0.887408,-0.05655 -1.549253,-0.732021 -0.625679,-0.638562 -0.664057,-1.534245 -0.0383,-0.902991 0.5412,-1.470804 0.358038,-0.350814 0.870846,-0.469833 0.512808,-0.119019 0.997396,0.02113 z m 1.585802,1.448627 q -0.408681,-0.417095 -0.996992,-0.419436 -0.591927,-0.006 -1.009023,0.402649 -0.406021,0.397831 -0.419361,0.989684 -0.01334,0.591853 0.377258,0.990493 0.423147,0.431859 1.015,0.445199 0.591853,0.01334 1.012639,-0.398958 0.417096,-0.40868 0.423127,-1.000608 0.0024,-0.595619 -0.402648,-1.009023 z"
         style="font-family:'Tw Cen MT';-inkscape-font-specification:'Tw Cen MT'"
         id="path1401" />
      <path
         d="m 17.474426,35.680489 q 0.202813,-0.616997 0.872387,-0.943999 0.674626,-0.329516 1.341083,-0.13276 0.68572,0.202442 1.042073,0.828318 0.357553,0.622225 0.149944,1.253827 -0.208814,0.635251 -0.873083,0.971829 -0.659216,0.334066 -1.317969,0.139584 -0.704982,-0.208128 -1.067839,-0.83993 -0.359005,-0.630664 -0.146594,-1.27687 z m 2.758286,0.814316 q 0.126009,-0.383341 -0.08977,-0.755444 -0.214582,-0.375754 -0.638341,-0.500858 -0.435317,-0.128516 -0.846015,0.06664 -0.405647,0.192645 -0.536456,0.590591 -0.124808,0.379691 0.0975,0.757715 0.22614,0.379166 0.653752,0.505408 0.416053,0.122829 0.824101,-0.07712 0.408047,-0.199948 0.535255,-0.586941 z"
         style="font-size:10.5833px;line-height:1.25;font-family:'Tw Cen MT';-inkscape-font-specification:'Tw Cen MT';display:inline;fill:#ff0000;stroke-width:0.201115"
         id="path1387"
         transform="matrix(1.1038704,0.65176054,-0.67047263,1.172027,11.541102,-27.659782)" />
      <path
         d="m 22.273174,33.485683 0.687802,0.133508 -1.050901,4.862503 -0.687803,-0.133509 z"
         style="font-size:10.5833px;line-height:1.25;font-family:'Tw Cen MT';-inkscape-font-specification:'Tw Cen MT';display:inline;fill:#ff0000;stroke-width:0.201115"
         id="path1389"
         transform="matrix(1.1038704,0.65176054,-0.67047263,1.172027,11.541102,-27.659782)" />
    </g>
  </g>
  <g
     inkscape:groupmode="layer"
     id="layer2"
     inkscape:label="Dibujar">
    <path
       style="fill:#ff0000;fill-opacity:1;stroke:#ff0000;stroke-width:0.264583px;stroke-linecap:butt;stroke-linejoin:miter;stroke-opacity:1"
       d="m 44.19893,22.340837 -0.92811,0.19263 c 1.15254,-1.85625 3.21904,-4.46508 -0.22766,-5.48119 -5.64603,-1.27857 -11.11452,0.38076 -16.671228,3.46734 -0.358528,-5.2201 -1.80004,-3.22728 -3.257193,-0.66545 -5.200146,-6.04404 -9.94646,-13.2878302 -15.4454009,-11.3126202 -1.981615,1.41705 -0.502438,10.2950302 5.3586089,12.6084902 -4.8835609,18.74594 1.032455,12.493627 10.597374,5.192574 5.267694,15.525251 6.302591,14.723163 10.346729,0.411196 3.00913,1.19195 9.79705,-0.72432 6.68951,-6.33926 l -0.66546,0.98066 -0.10506,-2.3816 2.66179,0.94563 -1.1908,0.24517 c 2.13644,2.41662 0.92826,8.60868 -6.65448,7.35495 C 29.731326,42.075211 29.959616,44.194628 23.297395,28.030711 14.520032,33.676851 6.8536313,42.888785 12.117334,21.605347 5.9755341,18.148617 4.6793001,10.241997 6.8988191,7.9461468 10.37237,6.1049668 14.932596,7.3064768 23.044691,18.453227 c 1.594556,-2.04317 3.158083,-3.71399 4.202829,0.84056 5.64689,-3.34576 10.83529,-4.06687 16.21592,-3.15212 4.82062,1.62724 1.46549,6.36806 0.73549,7.1273 z"
       id="path870"
       sodipodi:nodetypes="ccccccccccccccccccccccc" />
    <g
       aria-label="Por el medioambiente"
       id="text8649"
       style="font-size:5.64444px;line-height:1.25;stroke-width:0.264583">
      <path
         d="m 1.7120159,40.735217 h 0.705555 q 0.5980681,0 0.964626,0.28112 0.3665579,0.28112 0.3665579,0.73036 0,0.451996 -0.3886065,0.75792 -0.3858504,0.305924 -1.1740876,0.297656 v 1.444183 H 1.7120159 Z m 0.4740448,0.418924 v 1.229209 q 0.5401905,-0.0055 0.7992615,-0.151584 0.2618271,-0.148828 0.2618271,-0.474045 0,-0.245291 -0.1984374,-0.424435 -0.1956813,-0.179145 -0.8626512,-0.179145 z"
         style="font-family:'Tw Cen MT';-inkscape-font-specification:'Tw Cen MT';fill:#000080"
         id="path550" />
      <path
         d="m 3.9664849,43.099929 q 0,-0.465776 0.3665579,-0.826822 0.3693139,-0.363802 0.8461148,-0.363802 0.4905812,0 0.8571391,0.35829 0.3665579,0.355533 0.3665579,0.832334 0,0.479557 -0.3610458,0.846115 -0.3582896,0.363802 -0.8295783,0.363802 -0.5043616,0 -0.8764317,-0.361046 -0.3693139,-0.361046 -0.3693139,-0.848871 z m 1.9733492,0 q 0,-0.289388 -0.220486,-0.501605 Q 5.4988622,42.38335 5.195694,42.38335 q -0.3114364,0 -0.5374345,0.21773 -0.223242,0.214974 -0.223242,0.515386 0,0.286631 0.2259981,0.501605 0.2287542,0.214974 0.5346784,0.214974 0.2976561,0 0.5208981,-0.220486 0.223242,-0.220486 0.223242,-0.51263 z"
         style="font-family:'Tw Cen MT';-inkscape-font-specification:'Tw Cen MT';fill:#000080"
         id="path552" />
      <path
         d="m 7.4474067,41.972695 v 0.468532 0 q 0.1598523,-0.281119 0.3114364,-0.405142 0.1543402,-0.12678 0.3996308,-0.12678 0.068902,0 0.1984374,0.03307 l -0.146072,0.479557 q -0.1378037,-0.02756 -0.1819009,-0.02756 -0.2425345,0 -0.407899,0.170877 -0.1626084,0.16812 -0.1626084,0.421679 v 1.259526 H 6.9788741 v -2.273761 z"
         style="font-family:'Tw Cen MT';-inkscape-font-specification:'Tw Cen MT';fill:#000080"
         id="path554" />
      <path
         d="m 12.623314,43.201904 h -1.940276 q 0.06339,0.350021 0.286631,0.51263 0.225998,0.159852 0.490582,0.159852 0.407899,0 0.683506,-0.338997 l 0.350021,0.264583 q -0.394118,0.509874 -1.055576,0.509874 -0.507118,0 -0.848871,-0.347266 -0.341753,-0.347265 -0.341753,-0.862651 0,-0.482313 0.344509,-0.83509 0.347266,-0.355534 0.846115,-0.355534 0.490581,0 0.840603,0.361046 0.350021,0.35829 0.344509,0.931553 z M 10.732647,42.81881 h 1.389061 q -0.23151,-0.468533 -0.683506,-0.468533 -0.493337,0 -0.705555,0.468533 z"
         style="font-family:'Tw Cen MT';-inkscape-font-specification:'Tw Cen MT';fill:#000080"
         id="path556" />
      <path
         d="m 13.243431,40.669072 h 0.479557 v 3.577384 h -0.479557 z"
         style="font-family:'Tw Cen MT';-inkscape-font-specification:'Tw Cen MT';fill:#000080"
         id="path558" />
      <path
         d="m 15.925091,44.246456 v -2.273761 h 0.474045 v 0.350021 q 0.16812,-0.214974 0.319704,-0.314192 0.154341,-0.09922 0.352778,-0.09922 0.259071,0 0.405143,0.112999 0.148828,0.112999 0.250803,0.361046 0.179144,-0.248047 0.344509,-0.361046 0.16812,-0.112999 0.388606,-0.112999 0.270096,0 0.465777,0.20395 0.195681,0.201193 0.195681,0.479557 v 1.653644 h -0.476801 v -1.529621 q 0,-0.377582 -0.37207,-0.377582 -0.212217,0 -0.361045,0.192925 -0.146072,0.192925 -0.146072,0.476801 v 1.237477 h -0.479557 v -1.466231 q 0,-0.446484 -0.366558,-0.446484 -0.21773,0 -0.369314,0.1819 -0.151584,0.181901 -0.151584,0.449241 v 1.281574 z"
         style="font-family:'Tw Cen MT';-inkscape-font-specification:'Tw Cen MT';fill:#000080"
         id="path560" />
      <path
         d="m 22.004991,43.201904 h -1.940277 q 0.06339,0.350021 0.286632,0.51263 0.225998,0.159852 0.490581,0.159852 0.407899,0 0.683507,-0.338997 l 0.350021,0.264583 q -0.394118,0.509874 -1.055576,0.509874 -0.507118,0 -0.848871,-0.347266 -0.341753,-0.347265 -0.341753,-0.862651 0,-0.482313 0.344509,-0.83509 0.347265,-0.355534 0.846115,-0.355534 0.490581,0 0.840602,0.361046 0.350022,0.35829 0.34451,0.931553 z M 20.114324,42.81881 h 1.389061 q -0.23151,-0.468533 -0.683506,-0.468533 -0.493338,0 -0.705555,0.468533 z"
         style="font-family:'Tw Cen MT';-inkscape-font-specification:'Tw Cen MT';fill:#000080"
         id="path562" />
      <path
         d="m 24.460653,40.669072 h 0.474044 v 3.577384 h -0.468532 v -0.474045 q -0.338997,0.537435 -0.887456,0.537435 -0.443728,0 -0.760677,-0.355534 -0.316948,-0.355533 -0.316948,-0.854383 0,-0.487825 0.32246,-0.837846 0.322461,-0.352778 0.768945,-0.352778 0.267339,0 0.49885,0.148828 0.23151,0.148828 0.369314,0.388607 z m 0.05512,2.436369 q 0,-0.305924 -0.223242,-0.529166 -0.223242,-0.225998 -0.531922,-0.225998 -0.319705,0 -0.542947,0.220486 -0.220486,0.21773 -0.220486,0.534678 0,0.303169 0.225998,0.531923 0.225998,0.225998 0.52641,0.225998 0.319705,0 0.542947,-0.220486 0.223242,-0.220486 0.223242,-0.537435 z"
         style="font-family:'Tw Cen MT';-inkscape-font-specification:'Tw Cen MT';fill:#000080"
         id="path564" />
      <path
         d="m 25.582375,41.225799 q 0,-0.148828 0.110243,-0.256315 0.110243,-0.110243 0.261828,-0.110243 0.148828,0 0.256314,0.110243 0.110243,0.107487 0.110243,0.256315 0,0.151584 -0.110243,0.259071 -0.107486,0.107487 -0.256314,0.107487 -0.151585,0 -0.261828,-0.107487 -0.110243,-0.107487 -0.110243,-0.259071 z m 0.135048,0.746896 h 0.474045 v 2.273761 h -0.474045 z"
         style="font-family:'Tw Cen MT';-inkscape-font-specification:'Tw Cen MT';fill:#000080"
         id="path566" />
      <path
         d="m 26.781269,43.099929 q 0,-0.465776 0.366558,-0.826822 0.369314,-0.363802 0.846114,-0.363802 0.490582,0 0.85714,0.35829 0.366557,0.355533 0.366557,0.832334 0,0.479557 -0.361045,0.846115 -0.35829,0.363802 -0.829579,0.363802 -0.504361,0 -0.876431,-0.361046 -0.369314,-0.361046 -0.369314,-0.848871 z m 1.973349,0 q 0,-0.289388 -0.220486,-0.501605 -0.220486,-0.214974 -0.523654,-0.214974 -0.311437,0 -0.537435,0.21773 -0.223242,0.214974 -0.223242,0.515386 0,0.286631 0.225998,0.501605 0.228755,0.214974 0.534679,0.214974 0.297656,0 0.520898,-0.220486 0.223242,-0.220486 0.223242,-0.51263 z"
         style="font-family:'Tw Cen MT';-inkscape-font-specification:'Tw Cen MT';fill:#000080"
         id="path568" />
      <path
         d="m 31.64574,41.972695 h 0.479557 v 2.273761 H 31.64574 V 43.79446 q -0.350022,0.515386 -0.868164,0.515386 -0.44924,0 -0.768945,-0.352778 -0.316948,-0.352777 -0.316948,-0.857139 0,-0.476801 0.319705,-0.832334 0.32246,-0.35829 0.755164,-0.35829 0.267339,0 0.507118,0.146072 0.239778,0.146072 0.37207,0.380338 z m 0.06339,1.143771 q 0,-0.311437 -0.223242,-0.531923 -0.223242,-0.223242 -0.534678,-0.223242 -0.303168,0 -0.529166,0.220486 -0.225998,0.220486 -0.225998,0.518142 0,0.322461 0.220485,0.548459 0.220486,0.225998 0.534679,0.225998 0.311436,0 0.534678,-0.223242 0.223242,-0.225998 0.223242,-0.534678 z"
         style="font-family:'Tw Cen MT';-inkscape-font-specification:'Tw Cen MT';fill:#000080"
         id="path570" />
      <path
         d="m 32.800533,44.246456 v -2.273761 h 0.474045 v 0.350021 q 0.168121,-0.214974 0.319705,-0.314192 0.15434,-0.09922 0.352777,-0.09922 0.259071,0 0.405143,0.112999 0.148828,0.112999 0.250803,0.361046 0.179145,-0.248047 0.344509,-0.361046 0.168121,-0.112999 0.388607,-0.112999 0.270095,0 0.465776,0.20395 0.195682,0.201193 0.195682,0.479557 v 1.653644 h -0.476801 v -1.529621 q 0,-0.377582 -0.37207,-0.377582 -0.212218,0 -0.361046,0.192925 -0.146072,0.192925 -0.146072,0.476801 v 1.237477 h -0.479557 v -1.466231 q 0,-0.446484 -0.366558,-0.446484 -0.21773,0 -0.369314,0.1819 -0.151584,0.181901 -0.151584,0.449241 v 1.281574 z"
         style="font-family:'Tw Cen MT';-inkscape-font-specification:'Tw Cen MT';fill:#000080"
         id="path572" />
      <path
         d="m 36.683844,40.669072 h 0.474045 v 1.752863 q 0.305924,-0.51263 0.876431,-0.51263 0.440972,0 0.763433,0.352778 0.325217,0.352777 0.325217,0.837846 0,0.485069 -0.319705,0.848871 -0.316949,0.361046 -0.741384,0.361046 -0.272851,0 -0.518142,-0.146072 -0.245291,-0.146072 -0.38585,-0.396875 v 0.479557 h -0.474045 z m 1.932008,2.430857 q 0,-0.311436 -0.223242,-0.531922 -0.223242,-0.223242 -0.540191,-0.223242 -0.305924,0 -0.531922,0.225998 -0.223242,0.223242 -0.223242,0.529166 0,0.319705 0.223242,0.540191 0.225998,0.21773 0.553971,0.21773 0.303168,0 0.520898,-0.223242 0.220486,-0.223242 0.220486,-0.534679 z"
         style="font-family:'Tw Cen MT';-inkscape-font-specification:'Tw Cen MT';fill:#000080"
         id="path574" />
      <path
         d="m 39.6356,41.225799 q 0,-0.148828 0.110243,-0.256315 0.110243,-0.110243 0.261827,-0.110243 0.148828,0 0.256315,0.110243 0.110243,0.107487 0.110243,0.256315 0,0.151584 -0.110243,0.259071 -0.107487,0.107487 -0.256315,0.107487 -0.151584,0 -0.261827,-0.107487 Q 39.6356,41.377383 39.6356,41.225799 Z m 0.135048,0.746896 h 0.474044 v 2.273761 h -0.474044 z"
         style="font-family:'Tw Cen MT';-inkscape-font-specification:'Tw Cen MT';fill:#000080"
         id="path576" />
      <path
         d="M 43.232276,43.201904 H 41.292 q 0.06339,0.350021 0.286631,0.51263 0.225999,0.159852 0.490582,0.159852 0.407899,0 0.683506,-0.338997 l 0.350022,0.264583 q -0.394119,0.509874 -1.055577,0.509874 -0.507118,0 -0.848871,-0.347266 -0.341753,-0.347265 -0.341753,-0.862651 0,-0.482313 0.344509,-0.83509 0.347266,-0.355534 0.846115,-0.355534 0.490581,0 0.840603,0.361046 0.350021,0.35829 0.344509,0.931553 z M 41.341609,42.81881 h 1.389061 q -0.23151,-0.468533 -0.683506,-0.468533 -0.493337,0 -0.705555,0.468533 z"
         style="font-family:'Tw Cen MT';-inkscape-font-specification:'Tw Cen MT';fill:#000080"
         id="path578" />
      <path
         d="m 43.695296,44.246456 v -2.273761 h 0.468533 v 0.377582 q 0.206705,-0.228754 0.374826,-0.333485 0.168121,-0.107487 0.374826,-0.107487 0.30868,0 0.52641,0.20395 0.220486,0.203949 0.220486,0.490581 v 1.64262 H 45.18082 v -1.50206 q 0,-0.184657 -0.121267,-0.305925 -0.118511,-0.121267 -0.303168,-0.121267 -0.239779,0 -0.413411,0.20395 -0.173633,0.201193 -0.173633,0.487825 v 1.237477 z"
         style="font-family:'Tw Cen MT';-inkscape-font-specification:'Tw Cen MT';fill:#000080"
         id="path580" />
      <path
         d="m 46.410029,41.311237 h 0.479557 v 0.661458 h 0.474045 v 0.438216 h -0.474045 v 1.835545 h -0.479557 v -1.835545 h -0.377582 v -0.443728 h 0.377582 z"
         style="font-family:'Tw Cen MT';-inkscape-font-specification:'Tw Cen MT';fill:#000080"
         id="path582" />
      <path
         d="m 50.056315,43.201904 h -1.940276 q 0.06339,0.350021 0.286632,0.51263 0.225998,0.159852 0.490581,0.159852 0.407899,0 0.683507,-0.338997 l 0.350021,0.264583 q -0.394119,0.509874 -1.055576,0.509874 -0.507118,0 -0.848871,-0.347266 -0.341754,-0.347265 -0.341754,-0.862651 0,-0.482313 0.34451,-0.83509 0.347265,-0.355534 0.846115,-0.355534 0.490581,0 0.840602,0.361046 0.350022,0.35829 0.344509,0.931553 z M 48.165648,42.81881 h 1.389062 q -0.23151,-0.468533 -0.683506,-0.468533 -0.493338,0 -0.705556,0.468533 z"
         style="font-family:'Tw Cen MT';-inkscape-font-specification:'Tw Cen MT';fill:#000080"
         id="path584" />
    </g>
  </g>
</svg>
